# xmcd
#
# Track frame offsets: 
#        150
#        8425
#        19402
#        35260
#        47912
#        56740
#        68515
#        78841
#        94973
#        111116
#        122833
#        133383
#        144637
#        156247
#        168420
#
# Disc length: 2407 seconds
#
# Revision: 0
# Processed by: cddbd v1.5.2PL0 Copyright (c) Steve Scherf et al.
# Submitted via: ExactAudioCopy v0.99pb5
#
DISCID=ca09650f
DTITLE=Johnny Cash - Collector's Edition [Disc 2]
DYEAR=1900
DGENRE=Country
TTITLE0=Get Rhythm
TTITLE1=Jackson
TTITLE2=A Boy Named Sue
TTITLE3=Ring of Fire
TTITLE4=Gospel Boogie (A Wonderful Time Up There)
TTITLE5=I Still Miss Someone
TTITLE6=Wreck of the Old '97
TTITLE7=(Ghost) Riders in the Sky
TTITLE8=The City of New Orleans
TTITLE9=Without Love
TTITLE10=Rock Island Line
TTITLE11=Ragged Old Flag
TTITLE12=Oh Come Angel Band
TTITLE13=Far Side Banks of Jordan
TTITLE14=Peace in the Valley
EXTD=
EXTT0=
EXTT1=
EXTT2=
EXTT3=
EXTT4=
EXTT5=
EXTT6=
EXTT7=
EXTT8=
EXTT9=
EXTT10=
EXTT11=
EXTT12=
EXTT13=
EXTT14=
PLAYORDER=
